<svg xmlns="http://www.w3.org/2000/svg" xmlns:xlink="http://www.w3.org/1999/xlink" width="500" zoomAndPan="magnify" viewBox="0 0 375 374.999991" height="500" preserveAspectRatio="xMidYMid meet" version="1.0"><defs><g/><clipPath id="3f729320f7"><path d="M 100 97 L 275 97 L 275 224 L 100 224 Z M 100 97 " clip-rule="nonzero"/></clipPath><clipPath id="50dbca84e4"><path d="M 224.191406 37.503906 L 313.71875 180.546875 L 150.332031 282.804688 L 60.804688 139.761719 Z M 224.191406 37.503906 " clip-rule="nonzero"/></clipPath><clipPath id="c9beded3a8"><path d="M 224.191406 37.503906 L 313.71875 180.546875 L 150.332031 282.804688 L 60.804688 139.761719 Z M 224.191406 37.503906 " clip-rule="nonzero"/></clipPath><clipPath id="cd273c95f5"><path d="M 147.15625 138.066406 L 162.90625 138.066406 L 162.90625 343.566406 L 147.15625 343.566406 Z M 147.15625 138.066406 " clip-rule="nonzero"/></clipPath><clipPath id="526fa4f040"><path d="M 146.988281 101.796875 L 225.574219 101.796875 L 225.574219 163.507812 L 146.988281 163.507812 Z M 146.988281 101.796875 " clip-rule="nonzero"/></clipPath><clipPath id="2bde3b3c92"><path d="M 223.769531 142.929688 C 224.757812 139.765625 225.40625 136.167969 225.40625 132.636719 C 225.40625 129.105469 224.851562 125.710938 223.863281 122.578125 C 223.832031 122.511719 223.832031 122.445312 223.800781 122.378906 C 219.851562 110.625 209.425781 101.964844 197.042969 101.796875 L 146.988281 101.796875 L 146.988281 163.507812 L 197.007812 163.507812 C 209.484375 163.34375 219.914062 154.816406 223.769531 142.929688 Z M 223.769531 142.929688 " clip-rule="nonzero"/></clipPath><clipPath id="2415ac72e5"><path d="M 191 174 L 239 174 L 239 241 L 191 241 Z M 191 174 " clip-rule="nonzero"/></clipPath><clipPath id="f252c57695"><path d="M 198.867188 174.429688 L 238.089844 235.328125 L 230.722656 240.074219 L 191.5 179.171875 Z M 198.867188 174.429688 " clip-rule="nonzero"/></clipPath><clipPath id="a19e0b0cc1"><path d="M 198.867188 174.429688 L 238.089844 235.328125 L 230.722656 240.074219 L 191.5 179.171875 Z M 198.867188 174.429688 " clip-rule="nonzero"/></clipPath><clipPath id="08030465dc"><path d="M 174.589844 173.859375 L 221.226562 173.859375 L 221.226562 182.574219 L 174.589844 182.574219 Z M 174.589844 173.859375 " clip-rule="nonzero"/></clipPath><clipPath id="43a25b8ccf"><path d="M 127.953125 174.429688 L 174.589844 174.429688 L 174.589844 183.144531 L 127.953125 183.144531 Z M 127.953125 174.429688 " clip-rule="nonzero"/></clipPath><clipPath id="ee549267d0"><path d="M 166.578125 120.324219 L 204.238281 120.324219 L 204.238281 144.980469 L 166.578125 144.980469 Z M 166.578125 120.324219 " clip-rule="nonzero"/></clipPath><clipPath id="2e8400252e"><path d="M 203.492188 136.757812 C 203.886719 135.492188 204.144531 134.054688 204.144531 132.644531 C 204.144531 131.234375 203.921875 129.878906 203.527344 128.628906 C 203.515625 128.601562 203.515625 128.574219 203.503906 128.546875 C 201.925781 123.851562 197.757812 120.390625 192.671875 120.324219 L 166.578125 120.324219 L 166.578125 144.980469 L 192.652344 144.980469 C 197.785156 144.914062 201.949219 141.507812 203.492188 136.757812 Z M 203.492188 136.757812 " clip-rule="nonzero"/></clipPath><clipPath id="74eda5c837"><path d="M 131.476562 226.757812 L 176.390625 226.757812 L 176.390625 232.847656 L 131.476562 232.847656 Z M 131.476562 226.757812 " clip-rule="nonzero"/></clipPath></defs><rect x="-37.5" width="450" fill="#ffffff" y="-37.499999" height="449.999989" fill-opacity="1"/><rect x="-37.5" width="450" fill="#151422" y="-37.499999" height="449.999989" fill-opacity="1"/><g fill="#ffffff" fill-opacity="1"><g transform="translate(123.557166, 231.554208)"><g><path d="M 68.71875 -139 C 74.96875 -139 80.734375 -138.207031 86.015625 -136.625 C 91.304688 -135.039062 95.882812 -132.671875 99.75 -129.515625 C 103.613281 -126.359375 106.625 -122.363281 108.78125 -117.53125 C 110.945312 -112.695312 112.03125 -107.0625 112.03125 -100.625 C 112.03125 -95.40625 111.160156 -90.632812 109.421875 -86.3125 C 107.679688 -82 105.226562 -78.242188 102.0625 -75.046875 C 98.90625 -71.859375 95.164062 -69.265625 90.84375 -67.265625 C 86.53125 -65.273438 81.765625 -63.957031 76.546875 -63.3125 L 76.453125 -63.015625 C 79.035156 -61.535156 81.550781 -59.457031 84 -56.78125 C 86.445312 -54.113281 88.8125 -51.195312 91.09375 -48.03125 C 93.382812 -44.875 95.578125 -41.648438 97.671875 -38.359375 C 99.765625 -35.078125 101.679688 -32.050781 103.421875 -29.28125 L 122.5625 0 L 92.109375 0 C 89.859375 -3.738281 87.332031 -8.007812 84.53125 -12.8125 C 81.726562 -17.613281 78.921875 -22.394531 76.109375 -27.15625 C 73.304688 -31.925781 70.664062 -36.359375 68.1875 -40.453125 C 65.707031 -44.546875 63.695312 -47.75 62.15625 -50.0625 C 60.664062 -52.195312 59.289062 -54.003906 58.03125 -55.484375 C 56.78125 -56.960938 55.507812 -58.148438 54.21875 -59.046875 C 52.9375 -59.953125 51.566406 -60.597656 50.109375 -60.984375 C 48.660156 -61.378906 47.035156 -61.609375 45.234375 -61.671875 L 44.46875 -61.671875 L 44.46875 0 L 17.5 0 L 17.5 -139 Z M 58.375 -80.21875 C 62.5625 -80.21875 66.28125 -80.554688 69.53125 -81.234375 C 72.789062 -81.910156 75.53125 -83.035156 77.75 -84.609375 C 79.976562 -86.191406 81.671875 -88.269531 82.828125 -90.84375 C 83.992188 -93.425781 84.578125 -96.585938 84.578125 -100.328125 C 84.578125 -104.066406 83.992188 -107.222656 82.828125 -109.796875 C 81.671875 -112.378906 79.976562 -114.457031 77.75 -116.03125 C 75.53125 -117.613281 72.789062 -118.742188 69.53125 -119.421875 C 66.28125 -120.097656 62.5625 -120.4375 58.375 -120.4375 L 44.46875 -120.4375 L 44.46875 -80.21875 Z M 58.375 -80.21875 "/></g></g></g><g clip-path="url(#3f729320f7)"><g clip-path="url(#50dbca84e4)"><g clip-path="url(#c9beded3a8)"><path fill="#ffffff" d="M 247.921875 97.296875 C 248.9375 98.277344 249.933594 99.277344 250.902344 100.304688 C 251.871094 101.332031 252.8125 102.382812 253.730469 103.453125 C 254.648438 104.527344 255.539062 105.621094 256.40625 106.738281 C 257.269531 107.855469 258.109375 108.988281 258.917969 110.148438 C 259.726562 111.304688 260.507812 112.480469 261.261719 113.671875 C 262.011719 114.867188 262.734375 116.082031 263.429688 117.308594 C 264.121094 118.539062 264.785156 119.785156 265.417969 121.046875 C 266.050781 122.308594 266.652344 123.585938 267.226562 124.878906 C 267.796875 126.167969 268.335938 127.472656 268.84375 128.789062 C 269.351562 130.109375 269.824219 131.4375 270.269531 132.777344 C 270.710938 134.117188 271.121094 135.46875 271.5 136.828125 C 271.878906 138.191406 272.222656 139.558594 272.53125 140.933594 C 272.84375 142.3125 273.121094 143.695312 273.363281 145.085938 C 273.609375 146.476562 273.816406 147.875 273.992188 149.273438 C 274.167969 150.675781 274.3125 152.078125 274.417969 153.488281 C 274.527344 154.894531 274.597656 156.304688 274.636719 157.714844 C 274.675781 159.128906 274.683594 160.539062 274.652344 161.949219 C 274.625 163.363281 274.558594 164.773438 274.460938 166.179688 C 274.363281 167.589844 274.230469 168.992188 274.066406 170.394531 C 273.898438 171.796875 273.699219 173.195312 273.464844 174.585938 C 273.230469 175.980469 272.960938 177.367188 272.660156 178.746094 C 272.359375 180.125 272.023438 181.496094 271.65625 182.859375 C 271.289062 184.222656 270.886719 185.574219 270.453125 186.917969 C 270.019531 188.261719 269.554688 189.59375 269.054688 190.914062 C 268.554688 192.234375 268.027344 193.542969 267.464844 194.839844 C 266.902344 196.132812 266.308594 197.414062 265.683594 198.679688 C 265.058594 199.945312 264.40625 201.199219 263.71875 202.433594 C 263.035156 203.667969 262.320312 204.882812 261.574219 206.082031 C 260.832031 207.28125 260.058594 208.464844 259.257812 209.625 C 258.457031 210.789062 257.625 211.929688 256.769531 213.050781 C 255.910156 214.175781 255.027344 215.273438 254.117188 216.351562 C 253.207031 217.433594 252.269531 218.488281 251.308594 219.523438 C 250.953125 219.902344 250.589844 220.289062 250.214844 220.675781 L 249.113281 219.792969 C 249.503906 219.386719 249.894531 218.976562 250.28125 218.5625 C 251.234375 217.539062 252.160156 216.492188 253.0625 215.421875 C 253.96875 214.351562 254.84375 213.261719 255.691406 212.148438 C 256.539062 211.039062 257.363281 209.90625 258.15625 208.753906 C 258.949219 207.601562 259.714844 206.429688 260.449219 205.238281 C 261.1875 204.046875 261.894531 202.839844 262.570312 201.617188 C 263.246094 200.390625 263.894531 199.152344 264.511719 197.894531 C 265.125 196.640625 265.710938 195.367188 266.265625 194.082031 C 266.820312 192.796875 267.34375 191.5 267.832031 190.191406 C 268.324219 188.878906 268.78125 187.558594 269.207031 186.226562 C 269.632812 184.890625 270.027344 183.550781 270.386719 182.195312 C 270.746094 180.84375 271.074219 179.484375 271.367188 178.117188 C 271.660156 176.75 271.921875 175.375 272.144531 173.992188 C 272.371094 172.613281 272.566406 171.226562 272.722656 169.835938 C 272.882812 168.445312 273.007812 167.050781 273.097656 165.65625 C 273.1875 164.257812 273.242188 162.863281 273.265625 161.460938 C 273.285156 160.0625 273.273438 158.664062 273.226562 157.265625 C 273.179688 155.867188 273.097656 154.472656 272.984375 153.078125 C 272.867188 151.683594 272.71875 150.289062 272.535156 148.902344 C 272.351562 147.515625 272.136719 146.132812 271.882812 144.757812 C 271.632812 143.382812 271.347656 142.011719 271.03125 140.648438 C 270.714844 139.285156 270.363281 137.933594 269.976562 136.585938 C 269.59375 135.242188 269.175781 133.90625 268.726562 132.582031 C 268.277344 131.253906 267.792969 129.941406 267.28125 128.640625 C 266.765625 127.339844 266.222656 126.050781 265.644531 124.777344 C 265.066406 123.5 264.460938 122.242188 263.820312 120.996094 C 263.183594 119.75 262.511719 118.523438 261.8125 117.308594 C 261.113281 116.097656 260.386719 114.902344 259.628906 113.726562 C 258.871094 112.550781 258.085938 111.394531 257.273438 110.253906 C 256.457031 109.117188 255.617188 108 254.746094 106.902344 C 253.878906 105.804688 252.984375 104.730469 252.0625 103.675781 C 251.140625 102.625 250.195312 101.59375 249.222656 100.585938 C 248.25 99.582031 247.253906 98.597656 246.234375 97.640625 C 246.796875 97.535156 247.355469 97.425781 247.917969 97.300781 Z M 125.734375 100.695312 C 125.414062 101.03125 125.097656 101.363281 124.78125 101.703125 C 123.824219 102.730469 122.894531 103.777344 121.988281 104.851562 C 121.085938 105.921875 120.207031 107.019531 119.355469 108.132812 C 118.507812 109.25 117.683594 110.382812 116.886719 111.539062 C 116.09375 112.695312 115.328125 113.871094 114.589844 115.0625 C 113.851562 116.257812 113.144531 117.46875 112.464844 118.695312 C 111.789062 119.925781 111.140625 121.167969 110.523438 122.429688 C 109.90625 123.6875 109.320312 124.960938 108.765625 126.25 C 108.210938 127.539062 107.691406 128.839844 107.199219 130.15625 C 106.710938 131.46875 106.25 132.796875 105.824219 134.132812 C 105.402344 135.46875 105.007812 136.816406 104.648438 138.171875 C 104.289062 139.527344 103.964844 140.890625 103.671875 142.261719 C 103.378906 143.636719 103.121094 145.015625 102.894531 146.398438 C 102.671875 147.785156 102.480469 149.171875 102.324219 150.566406 C 102.167969 151.960938 102.046875 153.359375 101.957031 154.757812 C 101.867188 156.15625 101.816406 157.558594 101.796875 158.960938 C 101.777344 160.363281 101.792969 161.765625 101.84375 163.167969 C 101.890625 164.570312 101.976562 165.972656 102.09375 167.367188 C 102.210938 168.765625 102.363281 170.160156 102.550781 171.550781 C 102.738281 172.941406 102.960938 174.328125 103.214844 175.707031 C 103.46875 177.085938 103.757812 178.457031 104.078125 179.824219 C 104.402344 181.1875 104.757812 182.546875 105.144531 183.894531 C 105.535156 185.242188 105.957031 186.578125 106.410156 187.90625 C 106.863281 189.234375 107.351562 190.546875 107.871094 191.851562 C 108.390625 193.15625 108.9375 194.445312 109.523438 195.722656 C 110.105469 196.996094 110.71875 198.257812 111.359375 199.503906 C 112.003906 200.75 112.679688 201.980469 113.382812 203.195312 C 114.089844 204.40625 114.820312 205.601562 115.585938 206.78125 C 116.347656 207.957031 117.140625 209.113281 117.960938 210.253906 C 118.78125 211.390625 119.628906 212.507812 120.503906 213.605469 C 121.375 214.703125 122.277344 215.777344 123.207031 216.828125 C 124.132812 217.882812 125.085938 218.910156 126.0625 219.917969 C 127.042969 220.921875 128.042969 221.902344 129.070312 222.859375 C 128.503906 222.957031 127.9375 223.0625 127.371094 223.183594 C 126.347656 222.207031 125.347656 221.203125 124.375 220.179688 C 123.398438 219.152344 122.449219 218.105469 121.527344 217.03125 C 120.601562 215.960938 119.707031 214.867188 118.835938 213.75 C 117.964844 212.636719 117.121094 211.5 116.308594 210.34375 C 115.492188 209.183594 114.707031 208.007812 113.949219 206.8125 C 113.191406 205.621094 112.460938 204.40625 111.761719 203.175781 C 111.0625 201.945312 110.394531 200.699219 109.757812 199.4375 C 109.117188 198.171875 108.511719 196.894531 107.9375 195.601562 C 107.359375 194.308594 106.816406 193.003906 106.304688 191.683594 C 105.792969 190.367188 105.3125 189.035156 104.863281 187.691406 C 104.417969 186.347656 104.003906 184.996094 103.621094 183.632812 C 103.238281 182.273438 102.890625 180.902344 102.578125 179.519531 C 102.261719 178.140625 101.980469 176.753906 101.734375 175.363281 C 101.484375 173.96875 101.273438 172.570312 101.09375 171.164062 C 100.914062 169.761719 100.769531 168.355469 100.660156 166.945312 C 100.546875 165.535156 100.472656 164.121094 100.429688 162.707031 C 100.390625 161.292969 100.382812 159.878906 100.410156 158.460938 C 100.4375 157.046875 100.496094 155.632812 100.59375 154.222656 C 100.6875 152.808594 100.820312 151.402344 100.984375 149.996094 C 101.148438 148.589844 101.347656 147.191406 101.578125 145.792969 C 101.8125 144.398438 102.078125 143.007812 102.378906 141.625 C 102.679688 140.242188 103.011719 138.867188 103.378906 137.503906 C 103.75 136.136719 104.148438 134.777344 104.582031 133.433594 C 105.015625 132.085938 105.480469 130.75 105.980469 129.425781 C 106.476562 128.101562 107.007812 126.789062 107.570312 125.488281 C 108.132812 124.191406 108.726562 122.90625 109.351562 121.636719 C 109.976562 120.367188 110.632812 119.113281 111.316406 117.875 C 112.003906 116.640625 112.71875 115.417969 113.464844 114.214844 C 114.210938 113.011719 114.984375 111.828125 115.789062 110.664062 C 116.589844 109.5 117.421875 108.355469 118.28125 107.230469 C 119.140625 106.105469 120.023438 105 120.9375 103.917969 C 121.851562 102.839844 122.789062 101.78125 123.753906 100.742188 C 124.042969 100.433594 124.339844 100.121094 124.632812 99.816406 Z M 125.734375 100.695312 " fill-opacity="1" fill-rule="evenodd"/></g></g></g><g clip-path="url(#cd273c95f5)"><path fill="#151422" d="M 162.851562 138.066406 L 162.851562 343.601562 L 147.039062 343.601562 L 147.039062 138.066406 Z M 162.851562 138.066406 " fill-opacity="1" fill-rule="nonzero"/></g><g clip-path="url(#526fa4f040)"><g clip-path="url(#2bde3b3c92)"><path fill="#151422" d="M 146.988281 163.507812 L 146.988281 101.796875 L 225.332031 101.796875 L 225.332031 163.507812 Z M 146.988281 163.507812 " fill-opacity="1" fill-rule="nonzero"/></g></g><g clip-path="url(#2415ac72e5)"><g clip-path="url(#f252c57695)"><g clip-path="url(#a19e0b0cc1)"><path fill="#151422" d="M 198.867188 174.429688 L 238.089844 235.328125 L 230.722656 240.074219 L 191.5 179.171875 Z M 198.867188 174.429688 " fill-opacity="1" fill-rule="nonzero"/></g></g></g><g clip-path="url(#08030465dc)"><path fill="#151422" d="M 174.589844 173.859375 L 221.222656 173.859375 L 221.222656 182.574219 L 174.589844 182.574219 Z M 174.589844 173.859375 " fill-opacity="1" fill-rule="nonzero"/></g><g clip-path="url(#43a25b8ccf)"><path fill="#151422" d="M 127.953125 174.429688 L 174.585938 174.429688 L 174.585938 183.144531 L 127.953125 183.144531 Z M 127.953125 174.429688 " fill-opacity="1" fill-rule="nonzero"/></g><g clip-path="url(#ee549267d0)"><g clip-path="url(#2e8400252e)"><path fill="#ffffff" d="M 166.578125 144.980469 L 166.578125 120.324219 L 204.140625 120.324219 L 204.140625 144.980469 Z M 166.578125 144.980469 " fill-opacity="1" fill-rule="nonzero"/></g></g><path stroke-linecap="butt" transform="matrix(0.594648, 0.457049, -0.457049, 0.594648, 196.748605, 65.652893)" fill="none" stroke-linejoin="miter" d="M 2.89992 26.8972 C 43.910321 -2.298183 75.856311 -2.29706 98.734716 26.89644 " stroke="#ffffff" stroke-width="10" stroke-opacity="1" stroke-miterlimit="4"/><g clip-path="url(#74eda5c837)"><path fill="#ffffff" d="M 131.476562 226.757812 L 176.402344 226.757812 L 176.402344 232.847656 L 131.476562 232.847656 Z M 131.476562 226.757812 " fill-opacity="1" fill-rule="nonzero"/></g><g fill="#ffffff" fill-opacity="1"><g transform="translate(83.452089, 276.123687)"><g><path d="M 2.78125 0 L 2.78125 -21.421875 L 11.375 -21.421875 C 13.59375 -21.421875 15.265625 -20.910156 16.390625 -19.890625 C 17.523438 -18.867188 18.09375 -17.457031 18.09375 -15.65625 C 18.09375 -14.363281 17.757812 -13.300781 17.09375 -12.46875 C 16.4375 -11.632812 15.457031 -11 14.15625 -10.5625 L 14.15625 -10.25 C 14.820312 -9.957031 15.363281 -9.523438 15.78125 -8.953125 C 16.195312 -8.378906 16.59375 -7.523438 16.96875 -6.390625 L 19.109375 0 L 14.75 0 L 12.65625 -6.40625 C 12.4375 -7.050781 12.191406 -7.550781 11.921875 -7.90625 C 11.660156 -8.257812 11.320312 -8.515625 10.90625 -8.671875 C 10.488281 -8.835938 9.945312 -8.921875 9.28125 -8.921875 L 7.015625 -8.921875 L 7.015625 0 Z M 10.875 -12.28125 C 12.925781 -12.28125 13.953125 -13.234375 13.953125 -15.140625 C 13.953125 -17.085938 12.925781 -18.0625 10.875 -18.0625 L 7.015625 -18.0625 L 7.015625 -12.28125 Z M 10.875 -12.28125 "/></g></g><g transform="translate(103.476502, 276.123687)"><g/></g><g transform="translate(110.551696, 276.123687)"><g><path d="M 20.546875 0 L 16.09375 0 L 14.484375 -4.9375 L 6.28125 -4.9375 L 4.671875 0 L 0.328125 0 L 7.71875 -21.421875 L 13.15625 -21.421875 Z M 10.1875 -16.953125 L 7.421875 -8.5 L 13.3125 -8.5 L 10.546875 -16.953125 Z M 10.1875 -16.953125 "/></g></g><g transform="translate(131.425718, 276.123687)"><g/></g><g transform="translate(138.500913, 276.123687)"><g><path d="M 17.171875 -21.421875 L 17.171875 -17.859375 L 10.984375 -17.859375 L 10.984375 0 L 6.765625 0 L 6.765625 -17.859375 L 0.59375 -17.859375 L 0.59375 -21.421875 Z M 17.171875 -21.421875 "/></g></g><g transform="translate(156.254818, 276.123687)"><g/></g><g transform="translate(163.330013, 276.123687)"><g><path d="M 17.171875 -21.421875 L 17.171875 -17.859375 L 10.984375 -17.859375 L 10.984375 0 L 6.765625 0 L 6.765625 -17.859375 L 0.59375 -17.859375 L 0.59375 -21.421875 Z M 17.171875 -21.421875 "/></g></g><g transform="translate(181.083918, 276.123687)"><g/></g><g transform="translate(188.159113, 276.123687)"><g><path d="M 7.015625 0 L 2.78125 0 L 2.78125 -21.421875 L 7.015625 -21.421875 Z M 7.015625 0 "/></g></g><g transform="translate(197.973566, 276.123687)"><g/></g><g transform="translate(205.04876, 276.123687)"><g><path d="M 6.890625 0 L 2.78125 0 L 2.78125 -21.421875 L 7.625 -21.421875 L 16.234375 -7.625 L 16.609375 -7.671875 L 16.609375 -21.421875 L 20.6875 -21.421875 L 20.6875 0 L 16.34375 0 L 7.25 -14.734375 L 6.890625 -14.671875 Z M 6.890625 0 "/></g></g><g transform="translate(228.530204, 276.123687)"><g/></g><g transform="translate(235.605399, 276.123687)"><g><path d="M 10.484375 -21.421875 C 13.960938 -21.421875 16.617188 -20.519531 18.453125 -18.71875 C 20.285156 -16.925781 21.203125 -14.253906 21.203125 -10.703125 C 21.203125 -7.171875 20.285156 -4.503906 18.453125 -2.703125 C 16.617188 -0.898438 13.960938 0 10.484375 0 L 2.78125 0 L 2.78125 -21.421875 Z M 10.234375 -3.5625 C 12.441406 -3.5625 14.09375 -4.125 15.1875 -5.25 C 16.28125 -6.375 16.828125 -8.191406 16.828125 -10.703125 C 16.828125 -13.210938 16.28125 -15.03125 15.1875 -16.15625 C 14.09375 -17.289062 12.441406 -17.859375 10.234375 -17.859375 L 7.015625 -17.859375 L 7.015625 -3.5625 Z M 10.234375 -3.5625 "/></g></g><g transform="translate(258.500905, 276.123687)"><g/></g><g transform="translate(265.5761, 276.123687)"><g><path d="M 11.671875 0.3125 C 9.710938 0.3125 7.984375 -0.0859375 6.484375 -0.890625 C 4.984375 -1.691406 3.804688 -2.914062 2.953125 -4.5625 C 2.109375 -6.207031 1.6875 -8.253906 1.6875 -10.703125 C 1.6875 -13.160156 2.109375 -15.210938 2.953125 -16.859375 C 3.804688 -18.503906 4.984375 -19.722656 6.484375 -20.515625 C 7.984375 -21.316406 9.710938 -21.71875 11.671875 -21.71875 C 13.640625 -21.71875 15.367188 -21.320312 16.859375 -20.53125 C 18.359375 -19.738281 19.53125 -18.515625 20.375 -16.859375 C 21.21875 -15.210938 21.640625 -13.160156 21.640625 -10.703125 C 21.640625 -8.253906 21.21875 -6.203125 20.375 -4.546875 C 19.53125 -2.898438 18.359375 -1.675781 16.859375 -0.875 C 15.367188 -0.0820312 13.640625 0.3125 11.671875 0.3125 Z M 11.671875 -3.375 C 13.492188 -3.375 14.878906 -3.957031 15.828125 -5.125 C 16.785156 -6.289062 17.265625 -8.148438 17.265625 -10.703125 C 17.265625 -13.265625 16.785156 -15.128906 15.828125 -16.296875 C 14.878906 -17.472656 13.492188 -18.0625 11.671875 -18.0625 C 9.847656 -18.0625 8.453125 -17.472656 7.484375 -16.296875 C 6.523438 -15.128906 6.046875 -13.265625 6.046875 -10.703125 C 6.046875 -8.148438 6.523438 -6.289062 7.484375 -5.125 C 8.453125 -3.957031 9.847656 -3.375 11.671875 -3.375 Z M 11.671875 -3.375 "/></g></g></g><g fill="#a7a5b4" fill-opacity="1"><g transform="translate(76.648996, 302.661542)"><g><path d="M 16.359375 -21.421875 L 16.359375 -17.875 L 7.015625 -17.875 L 7.015625 -12.203125 L 15.5 -12.203125 L 15.5 -8.703125 L 7.015625 -8.703125 L 7.015625 0 L 2.78125 0 L 2.78125 -21.421875 Z M 16.359375 -21.421875 "/></g></g></g><g fill="#a7a5b4" fill-opacity="1"><g transform="translate(93.956685, 302.661542)"><g/></g></g><g fill="#a7a5b4" fill-opacity="1"><g transform="translate(101.029122, 302.661542)"><g><path d="M 11.359375 0.3125 C 8.398438 0.3125 6.207031 -0.382812 4.78125 -1.78125 C 3.363281 -3.1875 2.65625 -5.269531 2.65625 -8.03125 L 2.65625 -21.421875 L 6.796875 -21.421875 L 6.796875 -8.0625 C 6.796875 -6.5 7.171875 -5.328125 7.921875 -4.546875 C 8.671875 -3.765625 9.816406 -3.375 11.359375 -3.375 C 14.390625 -3.375 15.90625 -4.9375 15.90625 -8.0625 L 15.90625 -21.421875 L 20.046875 -21.421875 L 20.046875 -8.03125 C 20.046875 -5.269531 19.332031 -3.1875 17.90625 -1.78125 C 16.488281 -0.382812 14.304688 0.3125 11.359375 0.3125 Z M 11.359375 0.3125 "/></g></g></g><g fill="#a7a5b4" fill-opacity="1"><g transform="translate(123.725329, 302.661542)"><g/></g></g><g fill="#a7a5b4" fill-opacity="1"><g transform="translate(130.797766, 302.661542)"><g><path d="M 2.78125 0 L 2.78125 -21.421875 L 11.375 -21.421875 C 13.59375 -21.421875 15.265625 -20.910156 16.390625 -19.890625 C 17.523438 -18.867188 18.09375 -17.457031 18.09375 -15.65625 C 18.09375 -14.363281 17.757812 -13.300781 17.09375 -12.46875 C 16.4375 -11.632812 15.457031 -11 14.15625 -10.5625 L 14.15625 -10.25 C 14.820312 -9.957031 15.363281 -9.523438 15.78125 -8.953125 C 16.195312 -8.378906 16.59375 -7.523438 16.96875 -6.390625 L 19.109375 0 L 14.75 0 L 12.65625 -6.40625 C 12.4375 -7.050781 12.191406 -7.550781 11.921875 -7.90625 C 11.660156 -8.257812 11.320312 -8.515625 10.90625 -8.671875 C 10.488281 -8.835938 9.945312 -8.921875 9.28125 -8.921875 L 7.015625 -8.921875 L 7.015625 0 Z M 10.875 -12.28125 C 12.925781 -12.28125 13.953125 -13.234375 13.953125 -15.140625 C 13.953125 -17.085938 12.925781 -18.0625 10.875 -18.0625 L 7.015625 -18.0625 L 7.015625 -12.28125 Z M 10.875 -12.28125 "/></g></g></g><g fill="#a7a5b4" fill-opacity="1"><g transform="translate(150.814362, 302.661542)"><g/></g></g><g fill="#a7a5b4" fill-opacity="1"><g transform="translate(157.886799, 302.661542)"><g><path d="M 6.890625 0 L 2.78125 0 L 2.78125 -21.421875 L 7.625 -21.421875 L 16.234375 -7.625 L 16.609375 -7.671875 L 16.609375 -21.421875 L 20.6875 -21.421875 L 20.6875 0 L 16.34375 0 L 7.25 -14.734375 L 6.890625 -14.671875 Z M 6.890625 0 "/></g></g></g><g fill="#a7a5b4" fill-opacity="1"><g transform="translate(181.359076, 302.661542)"><g/></g></g><g fill="#a7a5b4" fill-opacity="1"><g transform="translate(188.431513, 302.661542)"><g><path d="M 7.015625 0 L 2.78125 0 L 2.78125 -21.421875 L 7.015625 -21.421875 Z M 7.015625 0 "/></g></g></g><g fill="#a7a5b4" fill-opacity="1"><g transform="translate(198.242131, 302.661542)"><g/></g></g><g fill="#a7a5b4" fill-opacity="1"><g transform="translate(205.314568, 302.661542)"><g><path d="M 17.171875 -21.421875 L 17.171875 -17.859375 L 10.984375 -17.859375 L 10.984375 0 L 6.765625 0 L 6.765625 -17.859375 L 0.59375 -17.859375 L 0.59375 -21.421875 Z M 17.171875 -21.421875 "/></g></g></g><g fill="#a7a5b4" fill-opacity="1"><g transform="translate(223.061538, 302.661542)"><g><path d="M 11.359375 0.3125 C 8.398438 0.3125 6.207031 -0.382812 4.78125 -1.78125 C 3.363281 -3.1875 2.65625 -5.269531 2.65625 -8.03125 L 2.65625 -21.421875 L 6.796875 -21.421875 L 6.796875 -8.0625 C 6.796875 -6.5 7.171875 -5.328125 7.921875 -4.546875 C 8.671875 -3.765625 9.816406 -3.375 11.359375 -3.375 C 14.390625 -3.375 15.90625 -4.9375 15.90625 -8.0625 L 15.90625 -21.421875 L 20.046875 -21.421875 L 20.046875 -8.03125 C 20.046875 -5.269531 19.332031 -3.1875 17.90625 -1.78125 C 16.488281 -0.382812 14.304688 0.3125 11.359375 0.3125 Z M 11.359375 0.3125 "/></g></g></g><g fill="#a7a5b4" fill-opacity="1"><g transform="translate(245.757746, 302.661542)"><g/></g></g><g fill="#a7a5b4" fill-opacity="1"><g transform="translate(252.830182, 302.661542)"><g><path d="M 2.78125 0 L 2.78125 -21.421875 L 11.375 -21.421875 C 13.59375 -21.421875 15.265625 -20.910156 16.390625 -19.890625 C 17.523438 -18.867188 18.09375 -17.457031 18.09375 -15.65625 C 18.09375 -14.363281 17.757812 -13.300781 17.09375 -12.46875 C 16.4375 -11.632812 15.457031 -11 14.15625 -10.5625 L 14.15625 -10.25 C 14.820312 -9.957031 15.363281 -9.523438 15.78125 -8.953125 C 16.195312 -8.378906 16.59375 -7.523438 16.96875 -6.390625 L 19.109375 0 L 14.75 0 L 12.65625 -6.40625 C 12.4375 -7.050781 12.191406 -7.550781 11.921875 -7.90625 C 11.660156 -8.257812 11.320312 -8.515625 10.90625 -8.671875 C 10.488281 -8.835938 9.945312 -8.921875 9.28125 -8.921875 L 7.015625 -8.921875 L 7.015625 0 Z M 10.875 -12.28125 C 12.925781 -12.28125 13.953125 -13.234375 13.953125 -15.140625 C 13.953125 -17.085938 12.925781 -18.0625 10.875 -18.0625 L 7.015625 -18.0625 L 7.015625 -12.28125 Z M 10.875 -12.28125 "/></g></g></g><g fill="#a7a5b4" fill-opacity="1"><g transform="translate(272.846768, 302.661542)"><g/></g></g><g fill="#a7a5b4" fill-opacity="1"><g transform="translate(279.919216, 302.661542)"><g><path d="M 7.015625 -9.40625 L 7.015625 -3.546875 L 17.234375 -3.546875 L 17.234375 0 L 2.78125 0 L 2.78125 -21.421875 L 17 -21.421875 L 17 -17.875 L 7.015625 -17.875 L 7.015625 -12.859375 L 15.75 -12.859375 L 15.75 -9.40625 Z M 7.015625 -9.40625 "/></g></g></g></svg>